<svg viewBox="0 0 120 260" xmlns="http://www.w3.org/2000/svg">
  <defs>
    <clipPath id="pilsumTower">
      <path d="M26 62 L94 62 L98 232 L22 232 Z" />
    </clipPath>
  </defs>
  <g clip-path="url(#pilsumTower)">
    <rect x="20" y="62" width="80" height="34" fill="#e1251b" />
    <rect x="20" y="96" width="80" height="34" fill="#f7c600" />
    <rect x="20" y="130" width="80" height="34" fill="#e1251b" />
    <rect x="20" y="164" width="80" height="34" fill="#f7c600" />
    <rect x="20" y="198" width="80" height="34" fill="#e1251b" />
  </g>
  <rect x="51" y="105" width="18" height="20" fill="#fdf6e3" />
  <rect x="51" y="173" width="18" height="20" fill="#fdf6e3" />
  <rect x="18" y="232" width="84" height="12" fill="#1b1b1b" />

  <rect x="34" y="26" width="52" height="24" fill="#1b1b1b" />
  <rect x="40" y="31" width="16" height="14" fill="#fdf6e3" />
  <rect x="64" y="31" width="16" height="14" fill="#fdf6e3" />
  <path d="M26 26 L60 6 L94 26 Z" fill="#1b1b1b" />
  <circle cx="60" cy="6" r="5" fill="#e1251b" />

  <rect x="12" y="52" width="96" height="10" fill="#1b1b1b" />
  <rect x="15" y="40" width="90" height="3" fill="#1b1b1b" />
  <rect x="17" y="42" width="3" height="10" fill="#1b1b1b" />
  <rect x="33" y="42" width="3" height="10" fill="#1b1b1b" />
  <rect x="49" y="42" width="3" height="10" fill="#1b1b1b" />
  <rect x="65" y="42" width="3" height="10" fill="#1b1b1b" />
  <rect x="81" y="42" width="3" height="10" fill="#1b1b1b" />
  <rect x="97" y="42" width="3" height="10" fill="#1b1b1b" />
</svg>
